<svg id="Layer_1" data-name="Layer 1" xmlns="http://www.w3.org/2000/svg" width="750" height="617.14" viewBox="0 0 750 617.14"><defs><style>.cls-1{fill:#00832d;}.cls-2{fill:#0066da;}.cls-3{fill:#e94235;}.cls-4{fill:#2684fc;}.cls-5{fill:#00ac47;}.cls-6{fill:#ffba00;}</style></defs><title>google-meet-logo</title><g id="art_layer" data-name="art layer"><polygon class="cls-1" points="424.29 308.57 497.4 392.14 595.71 454.97 612.86 309.13 595.71 166.5 495.51 221.7 424.29 308.57"/><path class="cls-2" d="M0,507.86V632.14a51.41,51.41,0,0,0,51.43,51.43H175.71l25.72-93.94-25.72-81.77L90.43,482.14Z" transform="translate(0 -66.43)"/><polygon class="cls-3" points="175.71 0 0 175.71 90.43 201.43 175.71 175.71 201 95.01 175.71 0"/><rect class="cls-4" y="175.71" width="175.71" height="265.71"/><path class="cls-5" d="M708,140.83l-112.25,92.1V521.4l112.72,92.44C725.31,627,750,615,750,593.57V160.71C750,139,724.76,127.07,708,140.83Z" transform="translate(0 -66.43)"/><path class="cls-5" d="M424.29,375h0V507.86H175.71V683.57H544.29a51.41,51.41,0,0,0,51.42-51.43V521.4L424.29,375Z" transform="translate(0 -66.43)"/><path class="cls-6" d="M544.29,66.43H175.71V242.14H424.29V375L595.71,232.93V117.86A51.41,51.41,0,0,0,544.29,66.43Z" transform="translate(0 -66.43)"/></g></svg>